<?xml version="1.0" encoding="UTF-8" standalone="no"?>
<!-- Created with Inkscape (http://www.inkscape.org/) -->

<svg
   xmlns:dc="http://purl.org/dc/elements/1.1/"
   xmlns:cc="http://creativecommons.org/ns#"
   xmlns:rdf="http://www.w3.org/1999/02/22-rdf-syntax-ns#"
   xmlns:svg="http://www.w3.org/2000/svg"
   xmlns="http://www.w3.org/2000/svg"
   xmlns:sodipodi="http://sodipodi.sourceforge.net/DTD/sodipodi-0.dtd"
   xmlns:inkscape="http://www.inkscape.org/namespaces/inkscape"
   id="svg3293"
   version="1.1"
   inkscape:version="0.48.4 r9939"
   width="100"
   height="89.849236"
   sodipodi:docname="DeepinScreenshot-1824.png">
  <metadata
     id="metadata3299">
    <rdf:RDF>
      <cc:Work
         rdf:about="">
        <dc:format>image/svg+xml</dc:format>
        <dc:type
           rdf:resource="http://purl.org/dc/dcmitype/StillImage" />
        <dc:title></dc:title>
      </cc:Work>
    </rdf:RDF>
  </metadata>
  <defs
     id="defs3297" />
  <sodipodi:namedview
     pagecolor="#ffffff"
     bordercolor="#666666"
     borderopacity="1"
     objecttolerance="10"
     gridtolerance="10"
     guidetolerance="10"
     inkscape:pageopacity="0"
     inkscape:pageshadow="2"
     inkscape:window-width="1910"
     inkscape:window-height="1022"
     id="namedview3295"
     showgrid="false"
     fit-margin-top="0"
     fit-margin-left="0"
     fit-margin-right="0"
     fit-margin-bottom="0"
     inkscape:zoom="0.28502691"
     inkscape:cx="1233.8969"
     inkscape:cy="-371.03289"
     inkscape:window-x="0"
     inkscape:window-y="53"
     inkscape:window-maximized="0"
     inkscape:current-layer="g3303" />
  <g
     id="g3303"
     transform="translate(-102.75263,-67.381483)">
    <path
       style="fill:#ffffff"
       d="m 198.39387,156.56422 c -0.29883,-0.48353 -0.30622,-1.26279 -0.0164,-1.7317 0.2898,-0.4689 -0.7214,-1.37756 -2.24712,-2.01924 -5.29742,-2.22797 -10.69883,-9.73322 -10.70395,-14.87316 -0.003,-2.2282 0.35818,-3.13146 1.24946,-3.13146 0.68893,0 1.25626,0.65761 1.26075,1.46135 0.0175,3.13842 4.11793,10.27874 6.72671,11.71367 5.17783,2.848 6.73022,4.45483 6.46339,6.69006 -0.27131,2.27269 -1.83013,3.35104 -2.73281,1.89048 z m -18.15844,-11.98757 c -5.38713,-4.3837 -7.0796,-7.42067 -5.75529,-10.32723 1.03698,-2.2759 2.59255,-1.89958 2.59255,0.62719 0,0.90172 1.58219,3.41602 3.51599,5.58735 7.20349,8.08829 6.93388,7.70562 5.42894,7.70562 -0.75177,0 -3.35376,-1.61682 -5.78219,-3.59293 z m -13.85657,-3.19886 c -1.60848,-0.46362 -5.57285,-3.48188 -9.4982,-7.23143 l -6.73741,-6.43568 -7.46708,0.25567 c -6.8179,0.23343 -7.79524,0.0634 -11.24164,-1.95638 -3.44104,-2.01659 -4.27212,-2.16207 -9.40559,-1.64654 -3.7025,0.37182 -6.89521,0.20031 -9.32221,-0.5008 -2.2124,-0.6391 -3.02208,-1.14291 -2.02106,-1.25755 0.91856,-0.10519 5.53739,-0.64084 10.26405,-1.19033 8.5293,-0.99156 8.63141,-0.98225 13.5765,1.23698 4.38431,1.96756 5.65854,2.17442 10.61237,1.72283 6.4645,-0.5893 6.85625,-0.40455 15.46577,7.29373 2.94798,2.63596 7.17716,5.59649 9.39817,6.57894 3.7478,1.65783 3.92557,1.86866 2.47187,2.93162 -1.77078,1.29483 -2.24034,1.31016 -6.09554,0.19894 z m 30.2685,-2.78481 c -0.89152,-0.67431 -2.44427,-1.23797 -3.45055,-1.25259 -2.54829,-0.037 -3.01123,-1.21338 -1.14288,-2.90421 1.23723,-1.11967 1.94724,-1.23471 3.26564,-0.52912 2.53725,1.35789 4.13788,1.09408 5.18036,-0.85382 0.81417,-1.52128 0.56748,-2.0691 -1.84949,-4.10721 -3.20858,-2.70561 -7.78024,-3.88983 -9.5016,-2.46123 -0.89279,0.74094 -2.71731,0.43135 -7.96279,-1.35118 -6.12815,-2.08249 -7.17014,-2.21461 -10.48132,-1.329 -2.02218,0.54085 -4.62571,0.98337 -5.78562,0.98337 -3.11792,0 -8.36913,-2.95183 -15.2585,-8.57715 -3.36498,-2.74757 -9.56528,-6.97619 -13.77844,-9.39693 -4.21317,-2.42075 -8.73669,-5.727 -10.05226,-7.34723 -3.05282,-3.759786 -3.68152,-8.77302 -1.87814,-14.976387 0.74107,-2.549189 1.34739,-5.526826 1.34739,-6.616969 0,-3.051855 -2.24718,-5.569842 -5.51854,-6.183552 -3.07823,-0.57748 -4.50169,-2.350007 -3.05167,-3.800024 1.33927,-1.339279 6.89271,0.129317 9.54925,2.525285 3.24067,2.922807 3.76445,6.860751 1.9419,14.599935 -2.21965,9.425403 -1.74058,10.092283 16.95647,23.604002 8.40653,6.07512 16.32647,11.2745 17.59988,11.55418 1.27342,0.27969 3.34448,0.11723 4.60238,-0.36102 3.59132,-1.36542 8.66307,-1.0289 14.93447,0.99095 5.60286,1.80451 5.81074,1.81387 6.90987,0.31071 1.08002,-1.47702 1.34744,-1.40759 5.69593,1.47877 7.66457,5.08745 9.91735,11.17545 5.81337,15.7103 -1.65944,1.83367 -2.01132,1.85866 -4.08511,0.29012 z m -93.89473,-19.13682 c 0,-0.6361 0.94617,-1.7765 2.10259,-2.53422 1.76141,-1.15412 2.62217,-1.22199 5.30472,-0.41828 2.36308,0.708 3.65765,0.7156 4.9405,0.0291 0.9561,-0.51169 3.46612,-0.93034 5.57784,-0.93034 4.59372,0 8.5236,-1.54075 11.12039,-4.35986 1.68908,-1.83368 1.76056,-2.19121 0.62629,-3.13257 -2.17056,-1.80141 -1.41552,-2.64102 1.17182,-1.30305 3.84484,1.98824 3.8375,2.84952 -0.0584,6.8527 -5.41237,5.56144 -6.47408,5.90712 -17.63361,5.74128 -5.39655,-0.0802 -9.81192,0.15966 -9.81192,0.53301 0,0.37336 -0.75155,0.67883 -1.67011,0.67883 -0.91856,0 -1.67011,-0.52045 -1.67011,-1.15655 z"
       id="path3307"
       inkscape:connector-curvature="0"
       sodipodi:nodetypes="ccscssssccsssssssscssssssssssssssssssssssssssssssssssssssscsscsssssssscc" />
  </g>
</svg>
